PathFileType	4	(X/Y/Z)	OpenSim_Sub03_CSStiffKnee_Gyro.trc
DataRate	CameraRate	NumFrames	NumMarkers	Units	OrigDataRate	OrigDataStartFrame	OrigNumFrames
100	100	20	8	m	100	2728	3637
Frame#	Time	torso_imu_offset_imu	pelvis_imu_offset_imu	tibia_r_imu_offset_imu	femur_r_imu_offset_imu	tibia_l_imu_offset_imu	femur_l_imu_offset_imu	toes_r_imu_offset_imu	toes_l_imu_offset_imu
				X1	Y1	Z1	X2	Y2	Z2	X3	Y3	Z3	X4	Y4	Z4	X5	Y5	Z5	X6	Y6	Z6	X7	Y7	Z7	X8		Y8	Z8	

2728	27.27000000	-0.13046700	-0.34812500	0.27740500	0.21904800	0.22336100	0.15082700	-0.33171900	0.58459900	2.80497300	1.48811900	-0.11878600	1.06356400	0.40145900	0.00467600	0.58663300	0.36115900	-0.03777800	0.60018000	-0.85423900	2.84764200	1.23601900	0.03443900	-0.17883800	0.09782100
2729	27.28000000	-0.14360300	-0.35792800	0.24834400	0.23441500	0.22996500	0.16181200	-0.37306900	0.63719100	2.97427200	1.30630900	-0.10574000	0.97757400	0.37767600	0.00344900	0.59711900	0.36370200	-0.01124400	0.62490900	-0.94035000	3.11832900	1.07940900	0.03640500	-0.14613900	0.10080200
2730	27.29000000	-0.13963400	-0.35666300	0.22740500	0.23649700	0.24530200	0.19953700	-0.40949100	0.67194200	3.12315200	1.13231500	-0.09716200	0.90044700	0.39521100	-0.02542800	0.58140600	0.38369100	-0.00380800	0.62171400	-0.99946300	3.28936800	1.02272700	0.02374900	-0.14884400	0.12422400
2731	27.30000000	-0.12754400	-0.35860200	0.22552800	0.23211000	0.26991700	0.23193400	-0.42175900	0.70660300	3.25617900	0.94367000	-0.07688700	0.85090700	0.39971300	-0.05555700	0.54067100	0.40100900	0.01220400	0.63453400	-1.01486600	3.37560200	1.06640700	0.01465700	-0.15736000	0.15256300
2732	27.31000000	-0.11118600	-0.34960700	0.23328000	0.24034400	0.29420700	0.23426200	-0.38739600	0.71858900	3.37960900	0.75097900	-0.06259400	0.77548800	0.40157400	-0.02526400	0.53495900	0.40390800	0.02210500	0.64155600	-0.93734100	3.39804500	1.20635600	0.00885600	-0.18313600	0.16615500
2733	27.32000000	-0.12913600	-0.34846300	0.25270800	0.25868900	0.31059200	0.21009400	-0.22138600	0.73949200	3.49309800	0.58161000	-0.06299700	0.66535200	0.36848200	-0.00339900	0.56914500	0.45741400	0.03096800	0.62285800	-0.80013300	3.36854800	1.40569900	0.00893800	-0.18890400	0.16316100
2734	27.33000000	-0.13362500	-0.34800500	0.25892100	0.28460500	0.31165000	0.19890500	0.07895600	0.75603100	3.58467900	0.41939400	-0.07879300	0.59511300	0.32446000	0.04714600	0.55800500	0.47990400	0.04271700	0.61168900	-0.60468600	3.28334200	1.63409300	0.03500900	-0.21365700	0.14119700
2735	27.34000000	-0.13192700	-0.35441500	0.26114700	0.29654400	0.29449000	0.16641200	0.52030300	0.79354400	3.58901800	0.27133500	-0.09109900	0.49529600	0.28331900	0.04541400	0.54828100	0.50508900	0.06071500	0.60645300	-0.37859100	3.16126200	1.88964200	0.04798200	-0.25354300	0.14279600
2736	27.35000000	-0.14533500	-0.37191400	0.27411000	0.31472300	0.28440900	0.12381000	0.97276400	0.84239600	3.64540000	0.15542700	-0.08505000	0.38647600	0.33929400	0.06481800	0.54553000	0.51506500	0.06088800	0.60631400	-0.19011300	3.02062000	2.19621700	0.04430700	-0.27891000	0.13061600
2737	27.36000000	-0.14500300	-0.38114700	0.27219800	0.33147800	0.27149800	0.10509400	1.37365000	0.90321400	3.69506800	0.06765600	-0.06899700	0.29884300	0.30712200	0.02378300	0.59814200	0.52041800	0.08468700	0.61468200	-0.03285900	2.88810700	2.53213000	0.06274100	-0.30612200	0.14700800
2738	27.37000000	-0.15218500	-0.37664400	0.28024000	0.34328100	0.25269300	0.05163900	1.69029600	0.95363800	3.64622900	0.02492700	-0.05407200	0.19627400	0.32387600	-0.01087900	0.59444300	0.50941500	0.07032900	0.61567300	0.10551800	2.74539500	2.87142500	0.05337900	-0.33631900	0.16583000
2739	27.38000000	-0.12698600	-0.37698900	0.26588200	0.36832500	0.23562100	0.01853900	1.89800700	0.99971600	3.56178600	0.07436500	-0.02423400	0.11482200	0.31120600	0.01934500	0.57742700	0.47369200	0.05578900	0.62149800	0.24450100	2.57682100	3.16236600	0.03195400	-0.36539600	0.18777800
2740	27.39000000	-0.14479300	-0.36354100	0.28716900	0.41069800	0.21258300	-0.02672700	1.96616400	1.04683600	3.49677400	0.20195100	0.00421100	0.03159700	0.30905200	0.04275900	0.58819000	0.43817700	0.06408800	0.62377000	0.35231900	2.42196600	3.36906900	0.00182500	-0.39308900	0.22105400
2741	27.40000000	-0.13210100	-0.33764200	0.28221900	0.43409800	0.18674200	-0.05783800	2.02648000	1.09903000	3.34863500	0.36148000	0.01138000	-0.06743300	0.26362200	0.02393300	0.64268600	0.37880900	0.07364700	0.62317500	0.48014900	2.28606100	3.45014000	-0.02708100	-0.42901300	0.23573500
2742	27.41000000	-0.12694800	-0.30147600	0.28267600	0.45362900	0.17336400	-0.05276800	1.98723000	1.15732600	3.21136600	0.54429900	-0.03436300	-0.15012100	0.25058000	0.03694600	0.66057400	0.29423600	0.05177000	0.62237300	0.60638900	2.13101000	3.38522100	-0.04930700	-0.45112800	0.23858100
2743	27.42000000	-0.11590500	-0.27487700	0.28197700	0.44204000	0.16536900	-0.05195300	1.89963400	1.21110100	2.98762100	0.75383300	-0.10943900	-0.17723300	0.19335600	0.05402000	0.68581400	0.17194000	0.03862100	0.62160000	0.68758900	1.97715000	3.19734900	-0.03179300	-0.48413700	0.23153300
2744	27.43000000	-0.09929300	-0.25574500	0.28538400	0.40939100	0.15934000	-0.03409000	1.72476900	1.31550900	2.70455200	0.96498200	-0.15663600	-0.22158100	0.17295500	0.07875300	0.69703900	0.09138100	0.05044200	0.62625900	0.71516000	1.86927300	2.90631200	-0.01877100	-0.51754000	0.22316500
2745	27.44000000	-0.08385500	-0.22781700	0.28401700	0.38599500	0.13873900	-0.02451400	1.47476000	1.26956200	2.48460700	1.12779300	-0.20634100	-0.20837900	0.09912600	0.11136000	0.74651500	-0.01104600	0.04363400	0.63188300	0.72268500	1.82928200	2.50298800	-0.02640100	-0.56376300	0.21080700
2746	27.45000000	-0.07242600	-0.19613200	0.26524900	0.37614600	0.11025000	-0.02234200	1.21285700	1.17199900	2.21240000	1.19947300	-0.25927300	-0.22321100	0.09785700	0.15615800	0.78158200	-0.06463300	0.07380100	0.64174200	0.69785600	1.86171700	1.99662800	-0.02605600	-0.59623700	0.20284800
2747	27.46000000	-0.05605000	-0.17611000	0.25436700	0.39478800	0.09418600	-0.03584100	0.95664100	1.07494800	1.90365800	1.17495800	-0.36600300	-0.20899300	0.08949700	0.18885300	0.81046100	-0.08887300	0.07649300	0.65969700	0.57051000	1.84724400	1.41833600	-0.02341100	-0.64561300	0.18049200
